<?xml version="1.0" standalone="no"?>
<!DOCTYPE svg PUBLIC "-//W3C//DTD SVG 20010904//EN"
 "http://www.w3.org/TR/2001/REC-SVG-20010904/DTD/svg10.dtd">
<svg version="1.0" xmlns="http://www.w3.org/2000/svg"
 width="1200.000000pt" height="628.000000pt" viewBox="0 0 1200.000000 628.000000"
 preserveAspectRatio="xMidYMid meet">
<metadata>
Created by potrace 1.16, written by Peter Selinger 2001-2019
</metadata>
<g transform="translate(0.000000,628.000000) scale(0.100000,-0.100000)"
fill="#000000" stroke="none">
<path d="M1275 4348 c-29 -87 -36 -137 -33 -236 3 -117 2 -114 102 -239 19
-23 46 -74 62 -115 24 -60 28 -86 27 -149 -1 -42 -7 -88 -12 -102 -7 -17 -6
-46 1 -87 9 -47 9 -69 -1 -95 -10 -30 -9 -40 13 -91 42 -102 52 -99 -254 -102
l-263 -2 -61 36 c-64 38 -87 43 -291 69 -72 9 -173 23 -225 30 -124 18 -170
21 -170 12 0 -4 31 -35 70 -68 38 -34 70 -65 70 -71 0 -7 -40 -7 -116 -3
l-115 7 3 -38 3 -39 80 4 c134 7 140 6 140 -5 0 -6 -33 -39 -73 -74 -40 -34
-71 -65 -68 -67 2 -3 60 3 128 12 68 9 170 23 228 31 58 8 143 19 190 25 70
10 96 19 147 50 l63 39 254 0 254 0 6 -32 c4 -18 9 -45 12 -60 4 -18 -1 -39
-17 -64 -20 -33 -21 -40 -10 -84 35 -136 -7 -319 -98 -422 -65 -75 -76 -111
-75 -253 0 -140 23 -240 54 -240 12 0 14 28 15 180 0 201 2 206 77 297 70 85
111 197 153 413 10 52 11 83 5 95 -6 10 -10 53 -10 94 l0 76 220 0 219 0 7
-36 c4 -20 4 -89 0 -153 -7 -109 -5 -123 24 -236 40 -153 64 -207 131 -282 83
-93 105 -196 80 -373 -9 -61 1 -89 25 -69 8 6 14 19 14 28 0 9 5 22 12 29 8 8
14 58 16 141 5 147 0 165 -74 251 -106 124 -139 252 -102 397 7 31 7 55 -2 93
-10 42 -10 60 0 91 12 34 11 44 -3 75 -9 19 -17 37 -17 39 0 3 43 5 95 5 77 0
97 3 102 15 9 25 -2 29 -103 33 l-96 4 7 53 c4 32 2 69 -6 93 -10 36 -9 44 11
81 21 37 22 45 12 93 -20 95 -21 125 -3 196 23 89 61 171 104 225 73 92 72 89
72 242 0 161 -19 245 -57 245 -18 0 -20 -5 -14 -42 30 -228 11 -333 -84 -448
-51 -62 -83 -135 -116 -270 -26 -104 -28 -129 -26 -255 2 -77 0 -157 -3 -177
l-7 -38 -213 0 -213 0 0 38 c-1 20 -4 80 -7 133 -5 63 -3 109 4 130 12 38 1
109 -44 262 -32 113 -54 155 -114 221 -81 90 -99 171 -81 381 4 51 3 60 -13
63 -9 2 -19 -2 -22 -10z"/>
<path d="M8029 4260 c-50 -55 -99 -131 -110 -170 -16 -56 -25 -1771 -11 -1963
8 -102 14 -133 32 -162 32 -52 56 -44 50 15 -12 110 -5 204 20 254 35 72 74
105 194 164 131 65 206 135 257 238 58 118 52 240 -19 356 -62 103 -64 188 -5
286 53 88 66 134 61 227 -8 152 -93 259 -275 345 -49 23 -103 49 -122 59 -19
9 -50 32 -69 51 -33 34 -34 37 -30 100 4 46 14 83 36 129 18 34 32 69 32 77 0
19 -22 16 -41 -6z m-23 -414 c11 -8 58 -27 103 -42 46 -15 95 -37 110 -49 14
-12 42 -31 62 -43 50 -30 108 -118 125 -189 26 -109 18 -142 -68 -275 -63 -99
-87 -118 -147 -118 -54 0 -74 -10 -65 -33 5 -13 19 -17 68 -17 73 0 76 -2 151
-121 54 -86 60 -104 60 -184 0 -67 -5 -88 -27 -130 -51 -98 -138 -166 -268
-210 -40 -14 -88 -34 -107 -45 -19 -11 -36 -20 -39 -20 -2 0 -4 335 -4 745 0
792 -2 764 46 731z"/>
<path d="M8950 3592 c-175 -58 -286 -165 -342 -327 -27 -80 -24 -237 6 -321
51 -141 159 -247 302 -300 64 -23 83 -26 176 -22 100 3 109 5 190 45 149 74
258 214 277 357 13 94 -2 224 -34 288 -62 126 -161 218 -294 269 -77 31 -206
36 -281 11z m98 -113 c-2 -18 -13 -25 -50 -35 -122 -31 -226 -138 -245 -251
-8 -45 -10 -48 -41 -51 -38 -4 -39 4 -16 85 36 125 150 238 275 273 69 19 83
15 77 -21z m212 -9 c97 -50 193 -183 207 -288 6 -42 5 -42 -26 -42 -26 0 -31
4 -31 25 0 41 -36 123 -75 170 -44 54 -110 94 -179 110 -51 11 -65 28 -52 60
4 11 14 11 62 -2 32 -8 74 -23 94 -33z m-212 -142 c-2 -25 -9 -33 -33 -41 -50
-16 -92 -54 -111 -102 -16 -38 -23 -45 -46 -45 -34 0 -36 17 -8 75 24 50 72
98 125 124 60 30 77 28 73 -11z m149 2 c56 -32 92 -73 117 -134 22 -53 21 -56
-18 -56 -30 0 -35 4 -41 29 -9 42 -64 100 -110 116 -34 11 -40 18 -43 44 -3
27 0 31 20 31 13 0 46 -14 75 -30z m-62 -132 c15 -12 34 -36 41 -55 39 -91
-83 -183 -161 -121 -60 47 -64 119 -9 168 42 37 89 40 129 8z m-398 -120 c6
-7 13 -30 17 -50 10 -55 52 -122 107 -172 46 -42 72 -54 177 -82 6 -2 12 -18
12 -35 0 -32 0 -32 -42 -25 -136 22 -264 136 -309 275 -12 38 -19 76 -16 85 8
19 40 21 54 4z m170 -45 c24 -50 36 -61 86 -87 50 -25 57 -33 57 -58 0 -28 -2
-29 -32 -23 -18 4 -49 18 -69 31 -92 58 -155 194 -90 194 14 0 28 -17 48 -57z
m419 43 c9 -25 -45 -123 -86 -156 -40 -32 -99 -60 -125 -60 -12 0 -15 8 -13
32 2 25 9 33 33 41 62 20 99 58 125 130 7 20 16 27 35 27 14 0 28 -6 31 -14z
m138 -33 c-1 -57 -52 -158 -109 -216 -52 -52 -148 -103 -213 -113 l-43 -7 3
34 c3 31 6 34 45 41 54 9 114 40 164 85 44 40 70 84 90 153 15 55 27 72 48 68
12 -3 16 -15 15 -45z"/>
<path d="M9026 3169 c-55 -43 -21 -139 50 -139 69 0 102 97 48 139 -15 12 -37
21 -49 21 -12 0 -34 -9 -49 -21z"/>
<path d="M2352 3568 c-19 -19 -17 -496 4 -596 29 -143 98 -237 213 -291 50
-23 68 -26 166 -26 98 0 116 3 167 27 68 31 134 96 165 159 48 98 54 145 51
450 l-3 284 -43 3 c-74 5 -72 13 -72 -289 0 -303 -7 -351 -65 -431 -48 -66
-109 -93 -205 -92 -107 0 -177 41 -222 129 -37 70 -41 104 -47 395 l-6 285
-45 3 c-26 2 -50 -2 -58 -10z"/>
<path d="M3347 3573 c-4 -3 -7 -207 -7 -453 0 -333 3 -449 12 -458 15 -15 63
-16 89 -2 18 10 19 25 19 341 0 198 4 329 9 327 5 -1 121 -142 256 -313 293
-368 291 -365 324 -363 67 2 61 -39 59 466 l-3 457 -43 3 c-75 5 -72 20 -72
-354 0 -184 -3 -334 -7 -333 -5 0 -131 155 -281 345 -272 343 -274 344 -311
344 -21 0 -41 -3 -44 -7z"/>
<path d="M4254 3566 c-3 -8 -4 -31 -2 -52 l3 -39 155 -5 155 -5 3 -402 2 -403
23 -5 c24 -6 69 -1 87 10 6 4 10 146 10 406 l0 399 156 0 155 0 -3 53 -3 52
-368 3 c-308 2 -368 0 -373 -12z"/>
<path d="M5147 3573 c-4 -3 -7 -208 -7 -454 0 -432 1 -449 19 -459 20 -10 70
-8 90 4 8 5 11 127 11 446 0 241 -3 445 -6 454 -4 12 -20 16 -53 16 -26 0 -51
-3 -54 -7z"/>
<path d="M5497 3573 c-4 -3 -7 -210 -7 -459 0 -496 -4 -464 60 -464 60 0 60 0
60 356 0 178 3 324 8 323 4 0 113 -133 242 -296 332 -417 310 -395 378 -377
l22 6 0 453 c0 404 -2 454 -16 459 -26 10 -79 7 -92 -6 -9 -9 -12 -99 -12
-345 0 -183 -3 -333 -7 -333 -5 0 -131 155 -282 345 -271 341 -275 345 -311
345 -20 0 -40 -3 -43 -7z"/>
<path d="M6719 3561 c-101 -39 -186 -118 -239 -223 -39 -80 -54 -157 -47 -253
24 -342 375 -546 637 -370 29 19 54 35 56 35 2 0 4 -18 4 -40 0 -42 16 -58 57
-55 55 5 53 -3 53 233 0 156 -3 221 -12 230 -8 8 -55 12 -144 12 -147 0 -158
-5 -152 -62 l3 -33 95 -5 95 -5 3 -64 c3 -63 3 -63 -39 -103 -81 -77 -187
-110 -281 -88 -306 74 -350 543 -63 677 118 54 287 9 347 -93 23 -39 38 -42
84 -13 42 26 42 39 3 94 -40 55 -103 101 -175 125 -74 26 -218 26 -285 1z"/>
<path d="M9572 3567 c-9 -11 29 -110 174 -453 102 -241 190 -444 195 -450 9
-11 80 -11 97 0 4 2 22 38 39 78 18 40 54 125 81 187 27 63 53 116 58 118 5 1
46 -84 90 -190 l81 -192 54 -3 54 -2 74 177 c41 98 85 201 98 228 12 28 31 73
41 100 11 28 32 77 47 110 95 213 118 273 112 289 -5 12 -21 16 -61 16 l-54 0
-30 -72 c-113 -277 -252 -618 -261 -641 -15 -40 -29 -31 -58 38 -13 33 -30 74
-38 90 -7 17 -27 63 -44 104 l-32 75 77 189 c51 125 73 192 67 198 -6 6 -32 9
-58 7 l-48 -3 -53 -130 c-28 -71 -55 -130 -59 -130 -4 0 -31 59 -59 130 l-52
130 -53 3 -53 3 5 -33 c2 -18 34 -105 71 -193 36 -88 66 -164 66 -170 0 -23
-143 -346 -150 -338 -5 4 -42 91 -84 193 -41 102 -108 266 -149 365 l-73 180
-50 3 c-34 2 -55 -2 -62 -11z"/>
<path d="M11310 3256 c0 -8 16 -36 36 -61 19 -26 33 -49 31 -52 -3 -2 -141 -7
-307 -10 -241 -5 -305 -9 -316 -20 -8 -8 -12 -19 -9 -24 4 -5 105 -9 230 -9
138 0 226 -4 230 -10 3 -5 47 -10 97 -10 l90 0 -35 -39 c-33 -36 -54 -77 -45
-86 2 -3 54 16 115 40 101 42 377 115 431 115 56 0 10 18 -126 47 -165 36
-274 70 -353 108 -61 29 -69 30 -69 11z"/>
<path d="M7361 3119 c-19 -8 -21 -12 -11 -24 18 -22 442 -22 460 0 10 12 8 16
-15 25 -33 13 -402 12 -434 -1z"/>
</g>
</svg>
